<svg width="24" height="24" viewBox="0 0 24 24" fill="none" xmlns="http://www.w3.org/2000/svg">
<path d="M20.5055 12.3129L12.7275 20.0909C11.5992 21.2009 10.0779 21.8202 8.4951 21.8138C6.91228 21.8073 5.39612 21.1757 4.27689 20.0564C3.15766 18.9372 2.52603 17.4211 2.51958 15.8382C2.51314 14.2554 3.1324 12.7342 4.24248 11.6059L12.0205 3.82785C12.3919 3.45641 12.8329 3.16176 13.3182 2.96074C13.8035 2.75972 14.3237 2.65625 14.849 2.65625C15.3743 2.65625 15.8944 2.75972 16.3798 2.96074C16.8651 3.16176 17.306 3.45641 17.6775 3.82785C18.0489 4.1993 18.3436 4.64026 18.5446 5.12558C18.7456 5.61089 18.8491 6.13105 18.8491 6.65635C18.8491 7.18165 18.7456 7.70181 18.5446 8.18713C18.3436 8.67244 18.0489 9.11341 17.6775 9.48485L9.89948 17.2629C9.52433 17.638 9.01552 17.8488 8.48498 17.8488C7.95444 17.8488 7.44563 17.638 7.07048 17.2629C6.69533 16.8877 6.48458 16.3789 6.48458 15.8484C6.48458 15.3178 6.69533 14.809 7.07048 14.4339L14.1415 7.36385" stroke="black" stroke-width="2" stroke-linecap="square"/>
</svg>
